<?xml version="1.0" encoding="utf-8"?>
<!-- Generator: Adobe Illustrator 21.1.0, SVG Export Plug-In . SVG Version: 6.00 Build 0)  -->
<svg version="1.1" id="Layer_1" xmlns="http://www.w3.org/2000/svg" xmlns:xlink="http://www.w3.org/1999/xlink" x="0px" y="0px"
	 viewBox="0 0 141.6 76" style="enable-background:new 0 0 141.6 76;" xml:space="preserve">
<style type="text/css">
	.st0{fill:#98989E;}
</style>
<g>
	<path class="st0" d="M140.2,62.6h-10.2v-2.1l4.1-3.3c0.7,0.4,1.4,0.6,2.2,0.6c1.2,0,2.3-0.5,3.2-1.3c1.5-1.5,2-6.2,2-7.1
		c0-0.3-0.1-0.7-0.3-0.9c-0.2-0.2-0.6-0.4-0.9-0.3c-0.9,0.1-5.6,0.5-7.1,2c-1.5,1.5-1.7,3.7-0.7,5.4l-2.5,2.1v-9.1
		c1.9-0.5,3.3-2.2,3.3-4.3c0-2.2-3-5.8-3.6-6.5c-0.4-0.5-1.3-0.5-1.7,0c-0.6,0.7-3.6,4.3-3.6,6.5c0,2.1,1.4,3.8,3.3,4.3v9.1
		l-2.6-2.1c1-1.7,0.8-3.9-0.7-5.4c-1.5-1.5-6.2-2-7.1-2c-0.3,0-0.7,0.1-0.9,0.3c-0.2,0.2-0.4,0.6-0.3,0.9c0.1,0.9,0.5,5.6,2,7.1
		c0.8,0.8,2,1.3,3.2,1.3c0.8,0,1.6-0.2,2.2-0.6l4.2,3.3v2.1h-21.6v-9.9h5.9c0.6,0,1.1-0.5,1.1-1.1V41.4c0-0.6-0.5-1.1-1.1-1.1H96.8
		v-6.4h11c0.6,0,1.1-0.5,1.1-1.1v-5.9c0-0.6-0.5-1.1-1.1-1.1h-11v-2.5h11c0.6,0,1.1-0.5,1.1-1.1v-5.9c0-0.6-0.5-1.1-1.1-1.1H31.5
		c-0.6,0-1.1,0.5-1.1,1.1v5.9c0,0.6,0.5,1.1,1.1,1.1h11v2.5h-11c-0.6,0-1.1,0.5-1.1,1.1v5.9c0,0.6,0.5,1.1,1.1,1.1h11v6.4H27.2
		c-0.6,0-1.1,0.5-1.1,1.1v10.1c0,0.6,0.5,1.1,1.1,1.1h5.9v9.9H13.4v-6.1L17,53c0.7,0.4,1.5,0.6,2.3,0.6c1.2,0,2.3-0.5,3.1-1.3
		c1.5-1.5,1.9-5.8,2-7.1c0-0.3-0.1-0.7-0.3-0.9c-0.2-0.2-0.6-0.4-0.9-0.3c-1.3,0.1-5.6,0.5-7.1,2c-0.8,0.8-1.3,2-1.3,3.1
		c0,0.8,0.2,1.5,0.6,2.2l-2,2v-8.1l3.4-3.3c0.8,0.6,1.7,0.9,2.6,0.9c1.2,0,2.3-0.5,3.1-1.3c1.5-1.5,1.9-5.8,2-7.1
		c0-0.3-0.1-0.7-0.3-0.9c-0.2-0.2-0.6-0.3-0.9-0.3c-1.3,0.1-5.6,0.5-7.1,2c-0.8,0.8-1.3,2-1.3,3.1c0,0.6,0.1,1.2,0.4,1.8l-2,1.9
		v-6.9l3.8-3.7c0.7,0.4,1.4,0.6,2.2,0.6c1.2,0,2.3-0.5,3.1-1.3c1.5-1.5,1.9-5.8,2-7.1c0-0.3-0.1-0.7-0.3-0.9
		c-0.2-0.2-0.6-0.4-0.9-0.3c-1.3,0.1-5.6,0.5-7.1,2c-1.5,1.5-1.7,3.7-0.7,5.4l-2.2,2.1v-9.8c1.9-0.5,3.3-2.2,3.3-4.3
		c0-2.1-2.7-5.5-3.6-6.4c-0.4-0.5-1.3-0.5-1.7,0c-0.8,1-3.6,4.3-3.6,6.4c0,2.1,1.4,3.8,3.3,4.3v9.8l-2.1-2c1-1.7,0.8-3.9-0.7-5.4
		c-1.5-1.5-5.8-1.9-7.1-2c-0.3,0-0.7,0.1-0.9,0.3C0.1,23.1,0,23.5,0,23.8c0.1,1.3,0.5,5.6,2,7.1c0.8,0.8,2,1.3,3.1,1.3
		c0.8,0,1.6-0.2,2.2-0.6l3.7,3.6V42l-1.9-1.8c0.2-0.6,0.4-1.2,0.4-1.8c0-1.2-0.5-2.3-1.3-3.1c-1.5-1.5-5.8-1.9-7.1-2
		c-0.3,0-0.7,0.1-0.9,0.3C0.1,33.8,0,34.2,0,34.5c0.1,1.3,0.5,5.6,2,7.1c0.8,0.8,2,1.3,3.1,1.3c1,0,1.9-0.3,2.6-0.9l3.3,3.2v8.1
		L9,51.2c0.4-0.7,0.6-1.4,0.6-2.2c0-1.2-0.5-2.3-1.3-3.1c-1.5-1.5-5.8-1.9-7.1-2c-0.3,0-0.7,0.1-0.9,0.3C0.1,44.5,0,44.8,0,45.1
		c0.1,1.3,0.5,5.6,2,7.1c0.8,0.8,2,1.3,3.1,1.3c0.8,0,1.6-0.2,2.3-0.6l3.7,3.6v6.1H2.6c-0.6,0-1.1,0.5-1.1,1.1
		c0,0.6,0.5,1.1,1.1,1.1h8.8h1.7H125h1.5h13.8c0.6,0,1.1-0.5,1.1-1.1C141.4,63.1,140.8,62.6,140.2,62.6z M134.9,51.8
		c0.5-0.5,2.4-1,4.3-1.2c-0.3,1.9-0.7,3.8-1.2,4.3c-0.8,0.8-2.3,0.8-3.1,0C134,54,134,52.6,134.9,51.8z M119.7,54.9
		c-0.5-0.5-1-2.4-1.2-4.3c1.9,0.3,3.8,0.7,4.3,1.2c0.9,0.9,0.9,2.2,0,3.1C122,55.7,120.6,55.7,119.7,54.9z M126.7,44.3
		c0-0.7,1-2.4,2.2-3.9c1.2,1.5,2.2,3.2,2.2,3.9c0,1.2-1,2.2-2.2,2.2S126.7,45.5,126.7,44.3z M17.8,47.6c0.5-0.5,2.4-0.9,4.3-1.2
		c-0.3,1.9-0.7,3.8-1.2,4.3c-0.8,0.8-2.1,0.8-3,0.1c0,0-0.1-0.1-0.1-0.1c0,0-0.1,0-0.1-0.1C16.9,49.7,17,48.4,17.8,47.6z M17.9,36.8
		c0.5-0.5,2.4-0.9,4.3-1.2c-0.3,1.9-0.7,3.8-1.2,4.3c-0.7,0.7-1.9,0.8-2.7,0.2c-0.4-0.5-0.6-0.6-0.8-1.1
		C17.1,38.2,17.3,37.4,17.9,36.8z M17.9,26.1c0.5-0.5,2.4-0.9,4.3-1.2c-0.3,1.9-0.7,3.8-1.2,4.3c-0.8,0.8-2.2,0.8-3.1,0
		C17,28.3,17,26.9,17.9,26.1z M3.6,29.3c-0.5-0.5-0.9-2.4-1.2-4.3c1.9,0.3,3.8,0.7,4.3,1.2c0.8,0.8,0.8,2.2,0,3.1
		C5.9,30.1,4.4,30.1,3.6,29.3z M3.6,40c-0.5-0.5-0.9-2.4-1.2-4.3c1.9,0.3,3.8,0.7,4.3,1.2c0.6,0.6,0.7,1.4,0.5,2.1
		c-0.3,0.6-0.3,0.8-0.8,1.1C5.5,40.7,4.4,40.7,3.6,40z M3.6,50.6c-0.5-0.5-0.9-2.4-1.2-4.3c1.9,0.3,3.8,0.7,4.3,1.2
		c0.8,0.8,0.8,2.1,0.1,2.9c0,0-0.1,0-0.1,0.1c0,0-0.1,0.1-0.1,0.1C5.8,51.4,4.4,51.4,3.6,50.6z M10.1,17.8c0-0.7,1-2.4,2.2-3.9
		c1.2,1.5,2.2,3.2,2.2,3.9c0,1.2-1,2.2-2.2,2.2S10.1,19,10.1,17.8z M103.9,62.6h-7.1v-9.9h7.1V62.6z M94.5,52.7v9.9H44.8v-9.9H94.5z
		 M106.7,28v3.7h-9.9V28H106.7z M94.5,31.6H44.8V28h49.8V31.6z M106.7,21h-9.9v-3.7h9.9V21z M94.5,21H44.8v-3.7h49.8V21z M32.6,21
		v-3.7h9.9V21H32.6z M44.8,23.2h49.8v2.5H44.8V23.2z M32.6,31.6V28h9.9v3.7H32.6z M44.8,33.9h49.8v6.4H44.8V33.9z M28.3,42.6H111
		v7.8H28.3V42.6z M35.4,52.7h7.1v9.9h-7.1V52.7z"/>
</g>
</svg>
