<?xml version="1.0" encoding="utf-8"?>
<!-- Generator: Adobe Illustrator 21.1.0, SVG Export Plug-In . SVG Version: 6.00 Build 0)  -->
<svg version="1.1" id="Layer_1" xmlns="http://www.w3.org/2000/svg" xmlns:xlink="http://www.w3.org/1999/xlink" x="0px" y="0px"
	 viewBox="0 0 141.6 76" style="enable-background:new 0 0 141.6 76;" xml:space="preserve">
<style type="text/css">
	.st0{fill:#C4A833;}
</style>
<g>
	<path class="st0" d="M102.3,50.7L94.4,45c-2.4-1.7-5.5-1.7-7.5,0.3l-4.4,4.4c-0.9,0.9-2.5,0.9-4,0.1c-6.5-4-15.5-13-19.6-19.5
		c-0.9-1.4-0.8-2.9,0.1-3.8l4.4-4.4c1.9-1.9,2-4.6,0.2-7.1l-5.6-8.3C56,4.1,53.1,2.4,50,2.2c-2.7-0.2-5,0.6-6.8,2.4l-3.8,3.9
		c-5.8,5.8-6.2,15.4-0.9,23c8.7,12.7,26.2,30,38.9,38.7c3.6,2.4,7.6,3.7,11.5,3.7c4.4,0,8.5-1.5,11.6-4.5l3.8-3.8
		c1.7-1.7,2.6-4.2,2.4-6.8C106.5,55.5,104.8,52.7,102.3,50.7z M102.3,63.3l-3.9,3.7c-4.5,4.7-12.2,5.6-18.8,0.8
		C66.4,58.9,49.2,42.7,41.2,30c-4.4-6.4-4.4-14.3-0.3-18.9l4.4-4.3c0.8-0.8,2.4-1.7,4-1.7c0.1,0,0.3,0,0.4,0C52,5.2,54.3,6.4,55.5,8
		l6.1,9.2c0.5,0.7,1.1,1.2,0.4,2.1l-4.5,4.9c-2.3,2.3-2.6,4.8-0.7,7.8c4.4,7.1,12.4,15.1,19.6,19.5c3,1.9,6.5,1.8,8.8-0.5l4.5-4.5
		c0.4-0.4,1.3-0.4,2,0.1l8.9,6.5c1.6,1.2,3.1,3.3,3.3,5.1C103.9,59.8,103.7,61.7,102.3,63.3z"/>
</g>
</svg>
