<?xml version="1.0" encoding="utf-8"?>
<!-- Generator: Adobe Illustrator 21.1.0, SVG Export Plug-In . SVG Version: 6.00 Build 0)  -->
<svg version="1.1" id="Layer_1" xmlns="http://www.w3.org/2000/svg" xmlns:xlink="http://www.w3.org/1999/xlink" x="0px" y="0px"
	 viewBox="0 0 141.6 76" style="enable-background:new 0 0 141.6 76;" xml:space="preserve">
<style type="text/css">
	.st0{fill:#C4A833;}
</style>
<g>
	<g>
		<path class="st0" d="M102.6,73.5V17.2h-9.8V5H74.5V0.1h-7.3V5H48.8v12.2H39v56.3h-6.1v2.4h75.8v-2.4H102.6z M69.6,2.5H72V5h-2.4
			V2.5L69.6,2.5z M51.2,7.4h39.1v9.8H51.2V7.4z M59.8,73.5v-22h9.8v22H59.8z M72,73.5v-22h9.8v22H72z M100.2,73.5H84.3V49H57.4v24.5
			H41.5V19.7h58.7L100.2,73.5L100.2,73.5z"/>
		<rect x="74.5" y="11.1" class="st0" width="2.4" height="2.4"/>
		<rect x="69.6" y="11.1" class="st0" width="2.4" height="2.4"/>
		<rect x="64.7" y="11.1" class="st0" width="2.4" height="2.4"/>
		<path class="st0" d="M51,26v4.3h-4.3V26H51 M52.5,24.5h-7.3v7.3h7.3V24.5L52.5,24.5z"/>
		<path class="st0" d="M65.7,26v4.3h-4.3V26H65.7 M67.2,24.5h-7.3v7.3h7.3V24.5L67.2,24.5z"/>
		<path class="st0" d="M80.3,26v4.3H76V26H80.3 M81.8,24.5h-7.3v7.3h7.3V24.5L81.8,24.5z"/>
		<path class="st0" d="M95,26v4.3h-4.3V26H95 M96.5,24.5h-7.3v7.3h7.3V24.5L96.5,24.5z"/>
		<path class="st0" d="M51,38.3v4.3h-4.3v-4.3H51 M52.5,36.8h-7.3v7.3h7.3V36.8L52.5,36.8z"/>
		<path class="st0" d="M51,50.5v4.3h-4.3v-4.3H51 M52.5,49h-7.3v7.3h7.3V49L52.5,49z"/>
		<path class="st0" d="M51,62.7v4.3h-4.3v-4.3H51 M52.5,61.2h-7.3v7.3h7.3V61.2L52.5,61.2z"/>
		<path class="st0" d="M65.7,38.3v4.3h-4.3v-4.3H65.7 M67.2,36.8h-7.3v7.3h7.3V36.8L67.2,36.8z"/>
		<path class="st0" d="M80.3,38.3v4.3H76v-4.3H80.3 M81.8,36.8h-7.3v7.3h7.3V36.8L81.8,36.8z"/>
		<path class="st0" d="M95,38.3v4.3h-4.3v-4.3H95 M96.5,36.8h-7.3v7.3h7.3V36.8L96.5,36.8z"/>
		<path class="st0" d="M95,50.5v4.3h-4.3v-4.3H95 M96.5,49h-7.3v7.3h7.3V49L96.5,49z"/>
		<path class="st0" d="M95,62.7v4.3h-4.3v-4.3H95 M96.5,61.2h-7.3v7.3h7.3V61.2L96.5,61.2z"/>
	</g>
</g>
</svg>
