<?xml version="1.0" encoding="utf-8"?>
<!-- Generator: Adobe Illustrator 21.1.0, SVG Export Plug-In . SVG Version: 6.00 Build 0)  -->
<svg version="1.1" id="Layer_1" xmlns="http://www.w3.org/2000/svg" xmlns:xlink="http://www.w3.org/1999/xlink" x="0px" y="0px"
	 viewBox="0 0 121.5 65.1" style="enable-background:new 0 0 121.5 65.1;" xml:space="preserve">
<style type="text/css">
	.st0{fill:#98989E;}
</style>
<g>
	<path class="st0" d="M86.5,61.3H70V42.6c0-0.7-0.6-1.2-1.2-1.2h-16c-0.7,0-1.2,0.6-1.2,1.2v18.8H35V26.1l-2.5,2v34.5
		c0,0.7,0.6,1.2,1.2,1.2h19c0.7,0,1.2-0.6,1.2-1.2V43.8h13.5v18.8c0,0.7,0.6,1.2,1.2,1.2h19c0.7,0,1.2-0.6,1.2-1.2V28.1l-2.5-2V61.3
		z"/>
	<path class="st0" d="M100,32.3c-0.1-0.3-0.2-0.6-0.5-0.8L85,20.1V2.6c0-0.7-0.6-1.2-1.2-1.2h-8l0,0c-0.7,0-1.1,0.5-1.2,1.2v9.2
		l-13-10.3c-0.6-0.4-1.2-0.2-1.5,0l-38,30c-0.2,0.2-0.4,0.5-0.5,0.8c-0.1,0.4,0,0.7,0.2,1c0.4,0.5,1.3,0.6,1.8,0.2L60.7,4.2L98,33.5
		c0.2,0.2,0.5,0.3,0.8,0.3c0,0,0.1,0,0.1,0c0.3,0,0.7-0.2,0.9-0.5C100,33.1,100.1,32.7,100,32.3z M82.5,3.8v14.3L77,13.7V3.8H82.5z"
		/>
</g>
</svg>
