<?xml version="1.0" encoding="utf-8"?>
<!-- Generator: Adobe Illustrator 21.1.0, SVG Export Plug-In . SVG Version: 6.00 Build 0)  -->
<svg version="1.1" id="Layer_1" xmlns="http://www.w3.org/2000/svg" xmlns:xlink="http://www.w3.org/1999/xlink" x="0px" y="0px"
	 viewBox="0 0 55.6 52.4" style="enable-background:new 0 0 55.6 52.4;" xml:space="preserve">
<style type="text/css">
	.st0{fill:#E2E2E4;}
</style>
<g>
	<path class="st0" d="M51.2,35.6l-10-5.1c-2.2-1.1-4.9-0.6-6.4,1.4l-2.7,3.4c-2.6-1.5-4.9-3.2-7.5-5.8c-2.7-2.7-4.3-5-5.9-7.7
		l3.4-2.7c1.9-1.5,2.5-4.2,1.4-6.4l-5.1-9.9c-0.7-1.3-1.9-2.2-3.3-2.6C13.7-0.2,12.2,0,11,0.8L4.7,5.1c-2,1.4-3.2,3.7-3,6.1
		c0.2,2.6,0.4,4.6,0.8,6c1.9,7.4,6.5,15,12.9,21.5c6.4,6.4,14,11,21.5,12.9c1.4,0.4,3.5,0.6,6,0.8c0.1,0,0.3,0,0.4,0
		c2.3,0,4.5-1.2,5.7-3.1l4.1-6.4c0.8-1.2,1-2.7,0.6-4.1C53.4,37.5,52.5,36.3,51.2,35.6z M50,40.9l-4.1,6.4c-0.6,0.9-1.7,1.5-2.8,1.4
		c-2.3-0.1-4.1-0.4-5.3-0.7c-6.7-1.7-13.8-6-19.7-12c-6-6-10.2-13-12-19.7c-0.3-1.2-0.6-3-0.7-5.3C5.3,9.9,5.8,8.8,6.7,8.2L13,4
		c0.3-0.2,0.6-0.2,0.8-0.2c0.1,0,0.2,0,0.4,0.1c0.2,0.1,0.7,0.2,0.9,0.7l5.1,9.9c0.3,0.6,0.1,1.4-0.4,1.8L14,20.8l0.7,1.4
		c1.9,3.6,3.8,6.5,7.3,10c3.4,3.4,6.4,5.3,9.8,7.2l1.4,0.7l4.6-5.9c0.4-0.6,1.2-0.7,1.8-0.4l10,5.1c0.4,0.2,0.6,0.5,0.7,0.9
		C50.4,40.2,50.3,40.6,50,40.9z"/>
</g>
</svg>
