<?xml version="1.0" encoding="utf-8"?>
<!-- Generator: Adobe Illustrator 21.1.0, SVG Export Plug-In . SVG Version: 6.00 Build 0)  -->
<svg version="1.1" id="Layer_1" xmlns="http://www.w3.org/2000/svg" xmlns:xlink="http://www.w3.org/1999/xlink" x="0px" y="0px"
	 viewBox="0 0 55.6 52.4" style="enable-background:new 0 0 55.6 52.4;" xml:space="preserve">
<style type="text/css">
	.st0{fill:#E2E2E4;}
</style>
<path class="st0" d="M55.6,10.3c0,0,0-0.1,0-0.1c0,0,0-0.1,0-0.1c0,0,0-0.1,0-0.2c0,0,0-0.1-0.1-0.2l-0.1-0.1c0-0.1-0.1-0.1-0.1-0.2
	l-0.1-0.1c0,0-0.1-0.1-0.1-0.1c0,0-0.1-0.1-0.1-0.1c0,0-0.1-0.1-0.1-0.1c0,0-0.1,0-0.1-0.1c0,0-0.1,0-0.1-0.1c0,0-0.1,0-0.2,0
	c0,0-0.1,0-0.1,0c-0.1,0-0.1,0-0.1,0l-52.6,0c-0.1,0-0.1,0-0.2,0l-0.2,0c0,0-0.1,0-0.1,0C1,8.9,1,9,0.9,9c0,0-0.1,0-0.1,0.1
	c0,0-0.1,0.1-0.1,0.1c0,0-0.1,0.1-0.1,0.1c0,0-0.1,0.1-0.1,0.1L0.3,9.5c0,0-0.1,0.1-0.1,0.2L0.2,9.7c0,0,0,0.1-0.1,0.1
	c0,0,0,0.1,0,0.2c0,0.1,0,0.1,0,0.1c0,0.1,0,0.1,0,0.1L0,42c0,0.9,0.7,1.6,1.6,1.6H54c0.9,0,1.6-0.7,1.6-1.6L55.6,10.3L55.6,10.3z
	 M6.1,12h43.5L27.8,29.8L6.1,12z M52.4,13.8v26.6H3.2V13.8l23.6,19.3c0.6,0.5,1.5,0.5,2,0L52.4,13.8z M54.9,9.9L54.9,9.9L54.9,9.9
	L54.9,9.9z M54.3,9.5L54.3,9.5L54.3,9.5L54.3,9.5z M54.2,9.4L54.2,9.4L54.2,9.4L54.2,9.4z M1.3,9.4L1.3,9.4L1.3,9.4L1.3,9.4z
	 M1.2,9.5L1.2,9.5L1.2,9.5L1.2,9.5z M0.7,10.1L0.7,10.1L0.7,10.1L0.7,10.1z"/>
</svg>
