<?xml version="1.0" encoding="utf-8"?>
<!-- Generator: Adobe Illustrator 21.1.0, SVG Export Plug-In . SVG Version: 6.00 Build 0)  -->
<svg version="1.1" id="Layer_1" xmlns="http://www.w3.org/2000/svg" xmlns:xlink="http://www.w3.org/1999/xlink" x="0px" y="0px"
	 viewBox="0 0 141.6 76" style="enable-background:new 0 0 141.6 76;" xml:space="preserve">
<style type="text/css">
	.st0{fill:#98989E;}
</style>
<g transform="translate(0,-952.36218)">
	<path class="st0" d="M18.5,954.7v1.2v69v1.2h1.2H122h1.2v-1.2v-69v-1.2H122H19.7H18.5z M20.8,957h99.9v48.7l-21.9-17.5
		c-0.4-0.3-1-0.4-1.4-0.1l-18.3,12.6l-24.3-19.7c-0.3-0.2-0.7-0.3-1-0.3c-0.1,0-0.3,0.1-0.4,0.2l-32.6,22.5L20.8,957z M79.1,964.2
		c-4.6,0-8.3,3.7-8.3,8.3c0,4.6,3.7,8.3,8.3,8.3s8.3-3.7,8.3-8.3C87.5,967.9,83.7,964.2,79.1,964.2z M78.5,966.6c0.2,0,0.4,0,0.6,0
		c3.3,0,5.9,2.6,5.9,5.9c0,3.3-2.6,5.9-5.9,5.9s-5.9-2.6-5.9-5.9C73.2,969.4,75.5,966.9,78.5,966.6z M54.1,983.5l24.3,19.7
		c0.4,0.3,1,0.4,1.4,0.1l18.3-12.6l22.7,18.1v14.9H20.8v-17.3L54.1,983.5z"/>
</g>
</svg>
