<?xml version="1.0" encoding="utf-8"?>
<!-- Generator: Adobe Illustrator 21.1.0, SVG Export Plug-In . SVG Version: 6.00 Build 0)  -->
<svg version="1.1" id="Layer_1" xmlns="http://www.w3.org/2000/svg" xmlns:xlink="http://www.w3.org/1999/xlink" x="0px" y="0px"
	 viewBox="0 0 141.6 76" style="enable-background:new 0 0 141.6 76;" xml:space="preserve">
<style type="text/css">
	.st0{fill:#C4A833;}
</style>
<g>
	<path class="st0" d="M100.1,73.8L88.6,48c-0.2-0.5-0.8-0.9-1.4-0.9h-8.8c4.3-9.1,9.3-20,10.1-22.4c0,0,0-0.1,0-0.1
		c0.7-1.9,1-3.9,1-6c0-10.3-8.4-18.6-18.6-18.6S52.2,8.4,52.2,18.7c0,2,0.3,4.1,1,6c0,0,0,0.1,0,0.1C54,27.2,59,38,63.3,47.1h-8.8
		c-0.6,0-1.1,0.3-1.4,0.9L41.5,73.8c-0.2,0.5-0.2,1,0.1,1.4c0.3,0.4,0.8,0.7,1.3,0.7h55.8c0.5,0,1-0.3,1.3-0.7
		C100.3,74.8,100.3,74.3,100.1,73.8z M56,23.6c-0.5-1.6-0.8-3.2-0.8-4.9c0-8.6,7-15.6,15.6-15.6s15.6,7,15.6,15.6
		c0,1.7-0.3,3.3-0.8,4.9c0,0.1,0,0.1-0.1,0.2c-0.7,2.5-9.9,22-14.8,32.2C66,45.8,56.7,26.3,56,23.8C56,23.7,56,23.7,56,23.6z
		 M45.2,73l10.2-22.8h9.3c2.3,4.9,4.2,8.9,4.8,10c0.2,0.5,0.8,0.9,1.4,0.9s1.1-0.3,1.4-0.9c0.5-1.1,2.4-5.1,4.8-10h9.3L96.4,73H45.2
		z"/>
	<path class="st0" d="M79.8,18.7c0-4.9-4-9-9-9s-9,4-9,9s4,9,9,9S79.8,23.6,79.8,18.7z M64.9,18.7c0-3.3,2.7-6,6-6s6,2.7,6,6
		s-2.7,6-6,6S64.9,22,64.9,18.7z"/>
</g>
</svg>
