<?xml version="1.0" encoding="utf-8"?>
<!-- Generator: Adobe Illustrator 22.0.1, SVG Export Plug-In . SVG Version: 6.00 Build 0)  -->
<svg version="1.1" id="Layer_1" xmlns="http://www.w3.org/2000/svg" xmlns:xlink="http://www.w3.org/1999/xlink" x="0px" y="0px"
	 viewBox="0 0 264.2 64.5" style="enable-background:new 0 0 264.2 64.5;" xml:space="preserve">
<style type="text/css">
	.st0{fill:#FFFFFF;}
</style>
<g>
	<g>
		<path class="st0" d="M76.4,53.5L73.3,63h-1.1l-3.6-11.1h1.3l2.9,9.4l3.1-9.4h1l3.1,9.4l2.9-9.4h1.3L80.6,63h-1.1L76.4,53.5z"/>
		<path class="st0" d="M91.2,51.6c3.4,0,5.2,2.7,5.2,5.9v0.3h-9.3c0.1,2.4,1.7,4.4,4.3,4.4c1.4,0,2.7-0.5,3.6-1.5l0.6,0.8
			c-1.1,1.1-2.5,1.8-4.3,1.8c-3.2,0-5.5-2.4-5.5-5.8C85.8,54.2,88.1,51.6,91.2,51.6z M87.1,56.9h8c0-1.9-1.3-4.2-4-4.2
			C88.5,52.7,87.2,55,87.1,56.9z"/>
		<path class="st0" d="M106.5,61.7c-1,1.1-2.2,1.6-3.8,1.6c-1.9,0-3.9-1.3-3.9-3.7c0-2.4,1.9-3.7,3.9-3.7c1.5,0,2.8,0.5,3.8,1.6
			v-2.2c0-1.6-1.3-2.5-3-2.5c-1.4,0-2.5,0.5-3.5,1.6l-0.7-0.8c1.1-1.2,2.4-1.9,4.3-1.9c2.2,0,4,1.1,4,3.6V63h-1.2V61.7z M106.5,58.4
			c-0.8-1-2-1.5-3.3-1.5c-1.8,0-3,1.2-3,2.7c0,1.6,1.2,2.7,3,2.7c1.3,0,2.6-0.5,3.3-1.5V58.4z"/>
		<path class="st0" d="M111.4,51.9h1.2v1.9c0.9-1.2,2.2-2.1,3.7-2.1V53c-0.2,0-0.4,0-0.6,0c-1.1,0-2.6,1-3.1,2V63h-1.2V51.9z"/>
		<path class="st0" d="M123.4,51.6c3.4,0,5.2,2.7,5.2,5.9v0.3h-9.3c0.1,2.4,1.7,4.4,4.3,4.4c1.4,0,2.7-0.5,3.6-1.5l0.6,0.8
			c-1.1,1.1-2.5,1.8-4.3,1.8c-3.2,0-5.5-2.4-5.5-5.8C118,54.2,120.3,51.6,123.4,51.6z M119.3,56.9h8c0-1.9-1.3-4.2-4-4.2
			C120.7,52.7,119.4,55,119.3,56.9z"/>
		<path class="st0" d="M131.7,47.7h1.2v6c0.9-1.3,2.3-2.1,3.8-2.1c3,0,4.9,2.3,4.9,5.8c0,3.5-2,5.8-4.9,5.8c-1.6,0-3.1-0.9-3.8-2V63
			h-1.2V47.7z M136.5,62.2c2.5,0,3.9-2,3.9-4.7s-1.4-4.7-3.9-4.7c-1.5,0-3,1-3.6,2v5.5C133.5,61.3,135,62.2,136.5,62.2z"/>
		<path class="st0" d="M144.1,57.4c0-3.2,2.1-5.8,5.3-5.8c3.3,0,5.3,2.6,5.3,5.8c0,3.2-2.1,5.8-5.3,5.8
			C146.2,63.3,144.1,60.7,144.1,57.4z M153.5,57.4c0-2.5-1.4-4.7-4.1-4.7c-2.6,0-4,2.3-4,4.7c0,2.5,1.5,4.7,4,4.7
			C152,62.2,153.5,59.9,153.5,57.4z"/>
		<path class="st0" d="M157.8,47.7h1.2V63h-1.2V47.7z"/>
		<path class="st0" d="M162.9,60.9V53h-1.8v-1.1h1.8v-3h1.2v3h2.2V53h-2.2v7.7c0,0.9,0.4,1.5,1.1,1.5c0.5,0,1-0.3,1.2-0.5l0.5,0.9
			c-0.4,0.4-1,0.7-1.9,0.7C163.7,63.3,162.9,62.4,162.9,60.9z"/>
		<path class="st0" d="M169.7,61.2c0.5,0,1,0.5,1,1c0,0.6-0.5,1-1,1s-1-0.5-1-1C168.6,61.7,169.1,61.2,169.7,61.2z"/>
		<path class="st0" d="M178.6,51.6c1.9,0,3,0.8,3.9,1.9l-0.8,0.7c-0.8-1.1-1.8-1.5-3-1.5c-2.6,0-4.2,2.1-4.2,4.7s1.6,4.7,4.2,4.7
			c1.2,0,2.2-0.5,3-1.6l0.8,0.7c-0.9,1.1-2,1.9-3.9,1.9c-3.3,0-5.4-2.6-5.4-5.8C173.2,54.2,175.3,51.6,178.6,51.6z"/>
		<path class="st0" d="M184.5,57.4c0-3.2,2.1-5.8,5.3-5.8c3.3,0,5.3,2.6,5.3,5.8c0,3.2-2.1,5.8-5.3,5.8
			C186.6,63.3,184.5,60.7,184.5,57.4z M193.9,57.4c0-2.5-1.4-4.7-4.1-4.7c-2.6,0-4,2.3-4,4.7c0,2.5,1.5,4.7,4,4.7
			C192.4,62.2,193.9,59.9,193.9,57.4z"/>
	</g>
	<g>
		<g>
			<path class="st0" d="M1.1,31.9V4.7h5.8v1.7h-4v23.8h4v1.7H1.1z"/>
			<path class="st0" d="M29.3,23.5c-1.1,1.6-3,2.8-5.3,2.8c-4,0-6.8-3.1-6.8-7.9c0-4.8,2.8-8,6.8-8c2.2,0,4.1,1.1,5.3,2.8V5h1.7V26
				h-1.7V23.5z M29.3,14.6c-0.9-1.5-2.9-2.8-5-2.8c-3.4,0-5.3,2.8-5.3,6.5c0,3.7,1.9,6.5,5.3,6.5c2.1,0,4.1-1.3,5-2.7V14.6z"/>
			<path class="st0" d="M42.5,10.4c4.6,0,7.2,3.7,7.2,8v0.4H36.9c0.2,3.3,2.4,6,5.9,6c1.9,0,3.7-0.7,5-2.1l0.8,1.1
				c-1.5,1.6-3.4,2.4-5.9,2.4c-4.4,0-7.6-3.3-7.6-8C35.1,14,38.2,10.4,42.5,10.4z M36.9,17.6h11c0-2.6-1.7-5.8-5.5-5.8
				C38.8,11.8,37.1,15,36.9,17.6z"/>
			<path class="st0" d="M53.5,22.7c1,1.2,2.8,2.2,4.9,2.2c2.5,0,4.1-1.3,4.1-3c0-1.9-2.1-2.5-4.2-3.1c-2.5-0.6-5.3-1.3-5.3-4.2
				c0-2.3,2-4.2,5.4-4.2c2.6,0,4.3,1,5.4,2.2l-0.9,1.2c-0.9-1.2-2.5-2-4.5-2c-2.4,0-3.8,1.2-3.8,2.7c0,1.7,1.9,2.2,4.1,2.7
				c2.6,0.7,5.5,1.4,5.5,4.6c0,2.4-1.9,4.5-5.7,4.5c-2.4,0-4.3-0.7-5.8-2.4L53.5,22.7z"/>
			<path class="st0" d="M67.8,7c0-0.7,0.6-1.3,1.3-1.3c0.7,0,1.3,0.6,1.3,1.3c0,0.7-0.6,1.3-1.3,1.3C68.4,8.2,67.8,7.6,67.8,7z
				 M68.2,10.8h1.6V26h-1.6V10.8z"/>
			<path class="st0" d="M75.9,28.6c1.3,1.6,2.8,2.1,5,2.1c2.8,0,5.2-1.4,5.2-4.9v-2.4c-1.1,1.5-3,2.8-5.3,2.8c-4,0-6.8-3-6.8-7.9
				c0-4.8,2.8-7.9,6.8-7.9c2.2,0,4.1,1.1,5.3,2.8v-2.4h1.7v15c0,4.6-3.1,6.3-6.8,6.3c-2.5,0-4.2-0.5-6-2.3L75.9,28.6z M86.1,14.6
				c-0.9-1.5-2.9-2.8-5-2.8c-3.4,0-5.3,2.8-5.3,6.5s1.9,6.4,5.3,6.4c2.1,0,4.1-1.3,5-2.8V14.6z"/>
			<path class="st0" d="M103.1,15.7c0-2.9-1.5-3.8-3.7-3.8c-1.9,0-4,1.2-4.9,2.6V26h-1.6V10.8h1.6v2.3c1.1-1.3,3.3-2.7,5.5-2.7
				c3.1,0,4.8,1.5,4.8,4.9V26h-1.6V15.7z"/>
			<path class="st0" d="M116.2,10.4c4.6,0,7.2,3.7,7.2,8v0.4h-12.7c0.2,3.3,2.4,6,5.9,6c1.9,0,3.7-0.7,5-2.1l0.8,1.1
				c-1.5,1.6-3.4,2.4-5.9,2.4c-4.4,0-7.6-3.3-7.6-8C108.9,14,112,10.4,116.2,10.4z M110.7,17.6h11c0-2.6-1.7-5.8-5.5-5.8
				C112.6,11.8,110.8,15,110.7,17.6z"/>
			<path class="st0" d="M138.8,23.5c-1.1,1.6-3,2.8-5.3,2.8c-4,0-6.8-3.1-6.8-7.9c0-4.8,2.8-8,6.8-8c2.2,0,4.1,1.1,5.3,2.8V5h1.7V26
				h-1.7V23.5z M138.8,14.6c-0.9-1.5-2.9-2.8-5-2.8c-3.4,0-5.3,2.8-5.3,6.5c0,3.7,1.9,6.5,5.3,6.5c2.1,0,4.1-1.3,5-2.7V14.6z"/>
			<path class="st0" d="M153.7,5h1.6v8.2c1.2-1.7,3.1-2.8,5.3-2.8c4.1,0,6.8,3.2,6.8,8c0,4.9-2.8,7.9-6.8,7.9
				c-2.3,0-4.2-1.2-5.3-2.8V26h-1.6V5z M160.3,24.9c3.4,0,5.3-2.8,5.3-6.5c0-3.7-1.9-6.5-5.3-6.5c-2.1,0-4.1,1.3-5,2.8v7.5
				C156.2,23.6,158.2,24.9,160.3,24.9z"/>
			<path class="st0" d="M172.2,30.6c1,0,1.7-0.4,2.3-1.9l1.2-2.7l-6.4-15.3h1.8l5.5,13.3l5.5-13.3h1.9l-7.9,18.5
				c-0.8,1.9-2.1,2.8-3.9,2.8c-0.5,0-1.2-0.1-1.6-0.2l0.3-1.5C171.2,30.5,171.8,30.6,172.2,30.6z"/>
			<path class="st0" d="M257.6,31.9v-1.7h4V6.4h-4V4.7h5.8v27.3H257.6z"/>
		</g>
		<g>
			<g>
				<path class="st0" d="M205.3,10.4c0.9,0,1.6,0.1,2.2,0.3c0.6,0.2,1.2,0.5,1.7,0.9c0.5,0.4,0.9,0.8,1.2,1.3c0.3,0.5,0.5,1,0.7,1.6
					c0.2,0.5,0.3,1.1,0.4,1.6c0.1,0.5,0.1,1.1,0.1,1.5c0,1.2-0.1,2.3-0.4,3.3c-0.3,1-0.7,1.8-1.3,2.5c-0.6,0.7-1.3,1.2-2.2,1.6
					c-0.9,0.4-1.9,0.6-3.1,0.6c-0.7,0-1.3,0-1.8-0.1c-0.5-0.1-1-0.2-1.4-0.4c-0.4-0.2-0.8-0.4-1.2-0.6c-0.4-0.2-0.7-0.5-1.1-0.8
					c0,0-0.1-0.1-0.1-0.1c0,0-0.1,0-0.1,0.1c-0.1,0.1-0.3,0.2-0.5,0.4c-0.2,0.2-0.4,0.4-0.7,0.6c-0.2,0.2-0.5,0.4-0.7,0.7
					c-0.2,0.2-0.4,0.4-0.6,0.6c-0.1,0.1-0.2,0.1-0.3,0.1c-0.1,0-0.1-0.1-0.1-0.3V15.3c0-0.9,0-1.7,0-2.6c0-0.9,0-1.7,0-2.5
					s0-1.5,0-2.2c0-0.7,0-1.2,0-1.7s0-1,0-1.6c0-0.1-0.1-0.2-0.2-0.3c0,0-0.1,0-0.2-0.1c-0.1,0-0.3-0.1-0.5-0.1
					c-0.2,0-0.3-0.1-0.5-0.1c-0.1,0-0.2-0.1-0.3-0.1c-0.1,0-0.2-0.1-0.2-0.2c0-0.1,0.1-0.2,0.2-0.2c0.4-0.1,0.9-0.2,1.4-0.4
					c0.5-0.2,1-0.4,1.5-0.6c0.5-0.2,1-0.4,1.4-0.7c0.5-0.2,0.9-0.5,1.2-0.7c0.1-0.1,0.2-0.1,0.3-0.1c0.1,0,0.2,0.1,0.2,0.2v11.1
					c0,0,0.1,0.1,0.1,0.1c0,0,0.1,0,0.1-0.1c0.1-0.1,0.3-0.3,0.5-0.6c0.2-0.3,0.5-0.5,0.9-0.8c0.4-0.3,0.9-0.5,1.4-0.7
					C203.8,10.5,204.5,10.4,205.3,10.4z M206.9,18.5c0-0.2,0-0.6,0-1c0-0.4,0-0.8-0.1-1.3c-0.1-0.5-0.2-0.9-0.3-1.4
					c-0.1-0.5-0.3-0.9-0.6-1.3c-0.2-0.4-0.6-0.7-0.9-0.9c-0.4-0.2-0.9-0.4-1.4-0.4c-0.7,0-1.3,0.1-1.7,0.4c-0.4,0.3-0.8,0.6-1,1
					c-0.2,0.4-0.4,0.8-0.5,1.2c-0.1,0.4-0.1,0.8-0.1,1.1v4.3c0,0.4,0,0.9,0.1,1.4c0.1,0.5,0.3,1,0.5,1.4c0.2,0.4,0.6,0.8,1,1.1
					c0.4,0.3,0.9,0.5,1.6,0.5c0.6,0,1.2-0.2,1.6-0.5c0.4-0.3,0.8-0.8,1.1-1.3c0.3-0.6,0.5-1.2,0.6-2
					C206.8,20.2,206.9,19.4,206.9,18.5z"/>
				<path class="st0" d="M235.8,22.7c0,0.4,0.1,0.8,0.3,1.1c0.2,0.3,0.4,0.5,0.6,0.6c0.2,0.2,0.5,0.3,0.7,0.3
					c0.2,0.1,0.4,0.1,0.5,0.1c0.1,0,0.1,0.1,0.2,0.1c0,0,0.1,0.1,0,0.2c0,0.1,0,0.1-0.1,0.1c0,0-0.1,0.1-0.2,0.1h-8.4
					c-0.1,0-0.2,0-0.2-0.1c0,0-0.1-0.1-0.1-0.1c0-0.1,0-0.1,0-0.2c0,0,0.1-0.1,0.2-0.1c0.1,0,0.2,0,0.5-0.1c0.2-0.1,0.5-0.2,0.7-0.3
					c0.2-0.2,0.5-0.4,0.6-0.6c0.2-0.3,0.3-0.6,0.3-1.1v-18c0-0.1-0.1-0.2-0.2-0.3c0,0-0.1,0-0.2,0c-0.1,0-0.3-0.1-0.5-0.1
					c-0.2,0-0.3-0.1-0.5-0.1c-0.1,0-0.2-0.1-0.3-0.1c-0.1,0-0.2-0.1-0.2-0.2c0-0.1,0.1-0.2,0.2-0.2c0.4-0.1,0.9-0.2,1.4-0.4
					c0.5-0.2,1-0.4,1.5-0.6c0.5-0.2,1-0.4,1.4-0.7c0.5-0.2,0.9-0.5,1.2-0.7c0.1-0.1,0.2-0.1,0.3-0.1c0.1,0,0.2,0.1,0.2,0.2V22.7z"/>
				<path class="st0" d="M248.6,22.9c0.2-0.1,0.3-0.1,0.4,0c0.1,0.1,0.1,0.2,0,0.4c-0.2,0.3-0.4,0.7-0.7,0.9c-0.3,0.3-0.6,0.5-1,0.7
					c-0.4,0.2-0.8,0.4-1.2,0.5c-0.4,0.1-0.9,0.2-1.4,0.2c-0.5,0-1.1-0.1-1.6-0.2c-0.5-0.1-1-0.4-1.4-0.7c-0.4-0.4-0.8-0.8-1-1.5
					c-0.3-0.6-0.4-1.4-0.4-2.4v-9c0-0.1,0-0.1-0.1-0.1h-0.4c-0.3,0-0.4,0-0.5,0c-0.1,0-0.1-0.1-0.1-0.2c0-0.1,0.1-0.3,0.2-0.4
					c0.1-0.2,0.3-0.2,0.5-0.2h0.4c0.1,0,0.1,0,0.1-0.1V6.9c0-0.2,0.1-0.4,0.3-0.4c0.3-0.1,0.6-0.1,0.9-0.2c0.3-0.1,0.6-0.2,0.9-0.3
					c0.3-0.1,0.6-0.3,0.9-0.4c0.3-0.1,0.6-0.3,0.8-0.5c0.1-0.1,0.2-0.1,0.3,0c0.1,0,0.2,0.1,0.2,0.3v5.4c0,0.1,0,0.1,0.1,0.1h3
					c0.3,0,0.4,0,0.5,0c0.1,0,0.1,0.1,0.1,0.2c0,0.1-0.1,0.3-0.2,0.4c-0.1,0.2-0.3,0.2-0.5,0.2h-2.9c-0.1,0-0.1,0-0.1,0.1v9.9
					c0,0.3,0.1,0.5,0.2,0.8c0.1,0.2,0.2,0.4,0.4,0.6c0.2,0.2,0.4,0.3,0.6,0.3c0.2,0.1,0.4,0.1,0.7,0.1c0.5,0,0.9-0.1,1.3-0.2
					C248.1,23.2,248.4,23.1,248.6,22.9z"/>
			</g>
			<path class="st0" d="M228,15c-0.4-0.9-0.9-1.7-1.6-2.4c-0.7-0.7-1.5-1.2-2.4-1.6c-0.9-0.4-1.9-0.6-3-0.6c-1.1,0-2.1,0.2-3.1,0.6
				c-1,0.4-1.8,1-2.5,1.7c-0.7,0.7-1.3,1.5-1.7,2.5c-0.4,0.9-0.6,1.9-0.6,3c0,1.1,0.2,2,0.6,3c0.4,0.9,0.9,1.7,1.6,2.4
				c0.7,0.7,1.5,1.2,2.4,1.6c0.9,0.4,1.9,0.6,3,0.6c1.1,0,2.1-0.2,3.1-0.6c1-0.4,1.8-1,2.5-1.7c0.7-0.7,1.3-1.5,1.7-2.4
				c0.4-0.9,0.6-1.9,0.6-3C228.5,16.9,228.4,15.9,228,15z M224.3,18.5l-3.5,4.8l-4.9-9.4h10l-3.7,4.6H224.3z"/>
		</g>
	</g>
</g>
</svg>
