<?xml version="1.0" encoding="utf-8"?>
<!-- Generator: Adobe Illustrator 21.1.0, SVG Export Plug-In . SVG Version: 6.00 Build 0)  -->
<svg version="1.1" id="Layer_1" xmlns="http://www.w3.org/2000/svg" xmlns:xlink="http://www.w3.org/1999/xlink" x="0px" y="0px"
	 viewBox="0 0 278 118" style="enable-background:new 0 0 278 118;" xml:space="preserve">
<style type="text/css">
	.st0{fill:#2D3444;}
	.st1{fill:#3D4659;}
	.st2{fill:#5B6982;}
</style>
<g>
	<g>
		<g>
			<path class="st0" d="M140.1,40.2h-4.9v-7.6c0-2.7,0.6-4.6,1.7-5.7c1.1-1.1,2.8-1.7,4.9-1.8c0.6,0,1.1-0.3,1.4-0.7
				c0.4-0.4,0.5-0.9,0.5-1.5v-3.1c0-0.7-0.2-1.3-0.6-1.7c-0.4-0.4-0.9-0.6-1.6-0.6c-2.5,0.1-4.7,0.5-6.5,1.3s-3.3,1.9-4.4,3.2
				c-1.1,1.3-2,2.9-2.5,4.7c-0.5,1.8-0.8,3.7-0.8,5.8v7.6h-4.6c-0.7,0-1.2,0.2-1.6,0.5c-0.4,0.4-0.6,0.9-0.6,1.7v2.3
				c0,0.8,0.2,1.4,0.6,1.8c0.4,0.4,0.9,0.7,1.6,0.7h4.6v34.4c0,0.7,0.2,1.2,0.5,1.6c0.4,0.4,0.9,0.6,1.6,0.6h3.4
				c0.6,0,1.1-0.2,1.6-0.6c0.5-0.4,0.7-0.9,0.7-1.7V47.2l4.6,0c1.3,0,2.3-1,2.3-2.3c0-1,0-1.7,0-2.7
				C142.2,41.1,141.3,40.2,140.1,40.2z"/>
			<path class="st0" d="M159.6,40.2h-3.9c-1,0-1.8,0.8-1.8,1.8v39.9c0,1.3,0.7,2,2,2h3.7c0.6,0,1.1-0.2,1.5-0.5
				c0.4-0.3,0.5-0.8,0.5-1.5V42.1c0-0.6-0.2-1.1-0.6-1.4C160.6,40.3,160.1,40.2,159.6,40.2z"/>
			<path class="st0" d="M162.9,25.7c-0.3-0.7-0.7-1.3-1.2-1.8c-0.5-0.5-1.1-0.9-1.8-1.2c-0.7-0.3-1.4-0.4-2.2-0.4
				c-0.8,0-1.5,0.1-2.2,0.4c-0.7,0.3-1.3,0.7-1.8,1.2c-0.5,0.5-0.9,1.1-1.2,1.8c-0.3,0.7-0.4,1.4-0.4,2.2c0,0.8,0.1,1.5,0.4,2.2
				c0.3,0.7,0.7,1.3,1.2,1.8c0.5,0.5,1.1,0.9,1.8,1.2c0.7,0.3,1.4,0.4,2.2,0.4c0.8,0,1.5-0.1,2.2-0.4c0.7-0.3,1.3-0.7,1.8-1.2
				c0.5-0.5,0.9-1.1,1.2-1.8c0.3-0.7,0.4-1.4,0.4-2.2C163.3,27.1,163.1,26.4,162.9,25.7z"/>
			<path class="st0" d="M191.1,84.5c-0.2,0-0.5,0.1-0.7,0.1c-0.2,0-0.5,0-0.7,0c-1.4,0-2.8-0.1-4.1-0.3c-1.3-0.2-2.5-0.7-3.5-1.4
				c-1-0.7-1.8-1.8-2.4-3.2c-0.6-1.4-0.9-3.3-0.9-5.7V47.3h-5.4c-0.7,0-1.3-0.1-1.6-0.4c-0.4-0.3-0.6-0.8-0.6-1.5V42
				c0-0.8,0.2-1.3,0.6-1.5c0.4-0.2,0.9-0.3,1.6-0.3h5.4V27.6c0-0.5,0.1-0.9,0.4-1.1c0.2-0.3,0.6-0.5,1.2-0.6l4.5-0.7
				c0.7,0,1.2,0.2,1.4,0.7c0.2,0.5,0.3,1,0.3,1.6v12.6h6.5c0.7,0,1.2,0.1,1.5,0.4c0.3,0.3,0.5,0.8,0.5,1.6v2.9c0,1.4-0.7,2.1-2,2.1
				h-6.5v23.9c0,1.5,0.1,2.7,0.2,3.5c0.1,0.8,0.4,1.4,0.8,1.8c0.4,0.4,0.9,0.6,1.4,0.7c0.6,0.1,1.3,0.1,2.2,0.2
				c0.7,0,1.2,0.2,1.6,0.6c0.4,0.4,0.6,0.9,0.6,1.6v2.8c0,0.7-0.2,1.2-0.6,1.5C192.3,84.3,191.8,84.5,191.1,84.5z"/>
			<path class="st0" d="M212.8,45.4c0.4-0.7,0.8-1.4,1.4-2.1c0.6-0.7,1.3-1.3,2.1-1.9c0.8-0.6,1.8-1.1,2.8-1.4
				c1.1-0.4,2.3-0.6,3.7-0.6c1.3,0,2.6,0.2,3.8,0.7c1.2,0.5,2.2,1,2.9,1.6c0.8,0.6,1.2,1.1,1.2,1.6c0,0.1,0,0.2-0.1,0.4
				c0,0.1-0.1,0.2-0.2,0.3l-2.2,4.1c-0.2,0.4-0.4,0.6-0.6,0.7c-0.2,0.1-0.4,0.1-0.6,0.1c-0.2,0-0.4-0.1-0.6-0.2
				c-0.2-0.1-0.3-0.1-0.3-0.2c-0.6-0.4-1.3-0.7-2-1c-0.8-0.3-1.5-0.4-2.3-0.5c-1.3,0-2.6,0.4-3.7,1.1c-1.1,0.7-2.1,1.6-2.8,2.7
				c-0.8,1.1-1.4,2.4-1.8,3.8c-0.4,1.4-0.6,2.8-0.6,4.1v23.2c0,1.3-0.7,2-2,2h-3.7c-1.4,0-2-0.7-2-2V42.3c0-0.6,0.2-1.1,0.6-1.4
				c0.4-0.4,0.8-0.5,1.4-0.5h3.2c0.6,0,1.1,0.2,1.5,0.6c0.4,0.4,0.6,0.8,0.6,1.4L212.8,45.4z"/>
			<path class="st0" d="M277,44.3c-3.9,9.2-7.6,18.4-11.4,27.6c-3.7,9.2-7.5,18.4-11.4,27.5c-0.4,1-1.2,1.6-2.4,1.6h-3.6
				c-1.4,0-2-0.5-2-1.5c0-0.3,0.1-0.6,0.2-0.9l6.4-15.6l-16.4-39.6c-0.2-0.4-0.3-0.8-0.3-1.1c0-0.3-0.1-0.5-0.1-0.6
				c0-0.9,0.6-1.4,1.9-1.4h3.8c0.6,0,1,0.1,1.4,0.4c0.4,0.3,0.7,0.7,0.9,1.2c1,2.6,2,5.2,3.1,7.9c1.1,2.7,2.1,5.4,3.2,8.2
				c1.1,2.7,2.2,5.4,3.2,8.1c1.1,2.7,2.2,5.3,3.2,7.9l12.7-32.3c0.2-0.5,0.5-0.9,0.9-1.1c0.4-0.2,0.9-0.3,1.5-0.3h3.6
				c0.7,0,1.3,0.2,1.6,0.5c0.3,0.3,0.5,0.8,0.5,1.3c0,0.1,0,0.4-0.1,0.6C277.5,43,277.3,43.5,277,44.3z"/>
		</g>
		<path class="st0" d="M274.9,31.1h-76.7c-1.7,0-3.1-1.4-3.1-3.1v-0.3c0-1.7,1.4-3.1,3.1-3.1l76.7,0c1.7,0,3.1,1.4,3.1,3.1V28
			C278,29.7,276.6,31.1,274.9,31.1z"/>
		<path class="st0" d="M191.5,98.7H127c-1.7,0-3.1-1.4-3.1-3.1v-0.3c0-1.7,1.4-3.1,3.1-3.1h64.6c1.7,0,3.1,1.4,3.1,3.1v0.3
			C194.6,97.3,193.2,98.7,191.5,98.7z"/>
	</g>
	<g>
		<path class="st1" d="M76.5,59.2v29.6c0,1.2-0.6,2.2-1.7,2.7L58.6,100v10.6l26.5-13.3c1-0.5,1.7-1.6,1.7-2.8V59.2V24
			c0-1.2-0.7-2.2-1.7-2.8L58.6,7.9v10.6l16.3,8.4c1,0.5,1.7,1.6,1.7,2.7V59.2z"/>
		<path class="st2" d="M86.8,59.2v35.3c0,1.2-0.7,2.2-1.7,2.8l-26.5,13.3v7.8L93,101.2c1.4-0.7,2.3-2.1,2.3-3.7V59.2V21
			c0-1.6-0.9-3-2.3-3.7L58.6,0.1v7.8l26.5,13.3c1,0.5,1.7,1.6,1.7,2.8V59.2z"/>
		<path class="st1" d="M18.5,59.2v29.6c0,1.2,0.6,2.2,1.7,2.7l16.3,8.4v10.6L9.9,97.3c-1-0.5-1.7-1.6-1.7-2.8V59.2V24
			c0-1.2,0.7-2.2,1.7-2.8L36.4,7.9v10.6l-16.3,8.4c-1,0.5-1.7,1.6-1.7,2.7V59.2z"/>
		<path class="st2" d="M8.2,59.2v35.3c0,1.2,0.7,2.2,1.7,2.8l26.5,13.3v7.8L2,101.2c-1.4-0.7-2.3-2.1-2.3-3.7l0-38.3V21
			c0-1.6,0.9-3,2.3-3.7L36.4,0.1v7.8L9.9,21.2c-1,0.5-1.7,1.6-1.7,2.8V59.2z"/>
	</g>
</g>
</svg>
