<?xml version="1.0" encoding="utf-8"?>
<!-- Generator: Adobe Illustrator 21.1.0, SVG Export Plug-In . SVG Version: 6.00 Build 0)  -->
<svg version="1.1" id="Layer_1" xmlns="http://www.w3.org/2000/svg" xmlns:xlink="http://www.w3.org/1999/xlink" x="0px" y="0px"
	 viewBox="0 0 130.6 129.2" style="enable-background:new 0 0 130.6 129.2;" xml:space="preserve">
<path d="M125.8,38.9c-3.2-7.8-7.6-14.6-13.2-20.3C107,12.8,100.3,8.3,92.4,5C84.6,1.7,76,0,66.6,0c-9.3,0-18.1,1.7-26.2,5.2
	c-8.1,3.4-15.2,8.1-21.2,14.1c-6,5.9-10.7,12.9-14.1,20.8C1.7,48,0,56.4,0,65.3c0,9,1.6,17.3,4.8,25.1c3.2,7.8,7.6,14.5,13.2,20.3
	c5.6,5.8,12.4,10.3,20.2,13.6c7.8,3.3,16.4,5,25.8,5c9.3,0,18.1-1.7,26.2-5.2c8.1-3.4,15.2-8.1,21.2-14.1c6-5.9,10.7-12.9,14.1-20.7
	c3.4-7.9,5.2-16.3,5.2-25.3C130.6,55,129,46.7,125.8,38.9z M94.4,66.5L64.8,109L23,30.6h84.8l-31.1,36H94.4z"/>
</svg>
