<?xml version="1.0" encoding="utf-8"?>
<!-- Generator: Adobe Illustrator 21.1.0, SVG Export Plug-In . SVG Version: 6.00 Build 0)  -->
<svg version="1.1" id="Layer_1" xmlns="http://www.w3.org/2000/svg" xmlns:xlink="http://www.w3.org/1999/xlink" x="0px" y="0px"
	 viewBox="0 0 226.1 153.3" style="enable-background:new 0 0 226.1 153.3;" xml:space="preserve">
<style type="text/css">
	.st0{fill:#FFFFFF;}
	.st1{font-family:'Futura-Medium';}
	.st2{font-size:14.6616px;}
</style>
<g>
	<g>
		<path class="st0" d="M68.4,121.7H52.2l-4.2,9.2h-6.2l18.8-40.3l18.1,40.3h-6.3L68.4,121.7z M66.1,116.3l-5.6-12.9l-5.9,12.9H66.1z
			"/>
		<path class="st0" d="M89.1,93v32.5h11.1v5.4H83.4V93H89.1z"/>
		<path class="st0" d="M111.4,93v37.9h-5.7V93H111.4z"/>
		<path class="st0" d="M142.7,121.7h-16.2l-4.2,9.2h-6.2l18.8-40.3l18.1,40.3h-6.3L142.7,121.7z M140.4,116.3l-5.6-12.9l-5.9,12.9
			H140.4z"/>
		<path class="st0" d="M170.5,114.8l11.7,16.2h-7l-10.8-15.5h-1v15.5h-5.7V93h6.7c5,0,8.6,0.9,10.8,2.8c2.5,2.1,3.7,4.9,3.7,8.3
			c0,2.7-0.8,5-2.3,6.9C175.1,113,173.1,114.2,170.5,114.8z M163.4,110.4h1.8c5.4,0,8.1-2.1,8.1-6.2c0-3.9-2.6-5.8-7.9-5.8h-2V110.4
			z"/>
		<g>
			<path class="st0" d="M24.5,117.4L11.9,91.5c0,0-0.4-0.7-0.2-1c0.2-0.3,0.8-0.2,0.8-0.2h5l10.5,21 M31.2,116.5l12.7-26.3h6.3
				L31,131l-3.4-7.3"/>
		</g>
		<g>
			<path class="st0" d="M211.2,103.8l12.6,25.9c0,0,0.4,0.7,0.2,1c-0.2,0.3-0.8,0.2-0.8,0.2h-5l-10.2-20.5 M204.5,104.7L191.8,131
				h-6.3l19.1-40.7l3.4,7.3"/>
		</g>
	</g>
	<text transform="matrix(1 0 0 1 69.7195 152.3001)" class="st0 st1 st2">HIGH LIVING</text>
	<polygon class="st0" points="-0.1,72.9 92.3,9.1 106.3,23.7 143.5,0 226.1,74.8 129.8,2.1 	"/>
</g>
</svg>
