<?xml version="1.0" encoding="utf-8"?>
<!-- Generator: Adobe Illustrator 21.0.2, SVG Export Plug-In . SVG Version: 6.00 Build 0)  -->
<svg version="1.1" id="Layer_1" xmlns="http://www.w3.org/2000/svg" xmlns:xlink="http://www.w3.org/1999/xlink" x="0px" y="0px"
	 viewBox="0 0 131 56.8" style="enable-background:new 0 0 131 56.8;" xml:space="preserve">
<style type="text/css">
	.st0{fill:#FFAA00;}
	.st1{fill:#FFFFFF;}
</style>
<g>
	<g>
		<path class="st0" d="M26.5,1.9C26.1,2,25.7,2,25.3,2.1c-2.5,0.6-3.9,3.1-3.5,5.7c0.4,2.3,1.6,4.1,3,5.8c2.7,3.2,5.4,6.3,7.9,9.7
			c2.5,3.4,4.4,7.2,5.3,11.4c1.9,9.7-4.2,19.6-13.9,21.9c0.6-0.5,1.2-0.9,1.6-1.3c3.2-2.8,4.9-6.3,4.8-10.5c0-1.6-0.5-3.2-1.5-4.6
			c-0.2-0.3-0.5-0.6-0.8-1.1c-1.5,3.6-4.9,5.2-8,3.7c0.1-0.1,0.3-0.1,0.4-0.2c2.5-2,3.2-4.7,3-7.7c-0.3-4-2.5-6.8-5.5-9.3
			c-0.1,0-0.1-0.1-0.2-0.1c0,0-0.1,0-0.2,0c0.1,1,0.3,1.9,0.4,2.9c0.2,2.2-0.4,4.3-1.8,6c-1.3,1.6-2.7,3.1-4.1,4.6
			c-1.5,1.6-2.9,3.3-3.4,5.5c-1,4.6,0.4,8.4,3.8,11.5c0.2,0.2,0.5,0.4,0.8,0.7c-1.7-0.2-3.2-0.7-4.6-1.4c-5.2-2.9-8.2-7.2-8.9-13.2
			c-0.4-3.4,0.5-6.4,2.3-9.2c0.9-1.4,1.9-2.7,2.7-4.1c0.9-1.4,1.4-3,0.9-4.7c-0.6-1.9-1.7-3.1-3.7-3.5c-0.1,0-0.3-0.1-0.6-0.2
			c1.4-1.2,2.9-2,4.6-2.1c1.6-0.1,3.3,0.1,4.9,0.1c-0.1-0.1-0.2-0.4-0.3-0.7c-1.9-4.8-1.8-9.5,1.4-13.7C14.4,1.4,17.3,0,20.9,0
			C22.7,0,25.3,0.9,26.5,1.9z"/>
	</g>
	<g>
		<path class="st1" d="M53.9,50.4v-19h-3.8v-6.3h3.8v-5.2c0-2.9,0.8-5.1,2.4-6.6c1.6-1.5,4-2.2,7.2-2.2c0.5,0,1,0,1.6,0.1
			c0.6,0.1,1.3,0.2,2,0.4v6.8c-0.4-0.2-0.8-0.3-1.1-0.3c-0.3-0.1-0.7-0.1-0.9-0.1c-0.8,0-1.4,0.3-1.8,0.8c-0.4,0.5-0.6,1.3-0.6,2.4
			v4h4.5v6.3h-4.5v19H53.9z"/>
		<path class="st1" d="M69.2,50.4V11.6h8.9v38.8H69.2z"/>
		<path class="st1" d="M82.7,17.2c0-1.4,0.5-2.5,1.4-3.5c1-1,2.1-1.4,3.5-1.4c1.4,0,2.6,0.5,3.5,1.4c0.9,0.9,1.4,2.1,1.4,3.5
			c0,1.4-0.5,2.6-1.4,3.5c-1,1-2.1,1.5-3.5,1.5c-1.3,0-2.5-0.5-3.5-1.5C83.2,19.8,82.7,18.6,82.7,17.2z M83.2,50.4V25.1h8.9v25.3
			H83.2z"/>
		<path class="st1" d="M96.9,50.4V25.1h8.4v3.2c1.4-2.3,4.6-4.3,11.2-3.1v6.2c-6.8-1.2-10.8,1.4-10.7,7.4v11.6H96.9z"/>
		<path class="st1" d="M118.5,50.4V17.6h8.8v7.5h3.8v6.3h-3.8v19H118.5z"/>
	</g>
</g>
</svg>
