<?xml version="1.0" encoding="utf-8"?>
<!-- Generator: Adobe Illustrator 21.1.0, SVG Export Plug-In . SVG Version: 6.00 Build 0)  -->
<svg version="1.1" id="Layer_1" xmlns="http://www.w3.org/2000/svg" xmlns:xlink="http://www.w3.org/1999/xlink" x="0px" y="0px"
	 viewBox="0 0 305 305" style="enable-background:new 0 0 305 305;" xml:space="preserve">
<style type="text/css">
	.st0{fill:#FFFF00;}
	.st1{fill:#FFFFFF;}
</style>
<path class="st0" d="M284.2,304.9H20.8C9.4,304.9,0,295.6,0,284.2V20.7C0,9.3,9.4,0,20.8,0h263.5C295.7,0,305,9.3,305,20.7v263.5
	C305,295.6,295.7,304.9,284.2,304.9z"/>
<g>
	<g>
		<path class="st1" d="M117.1,103.5c-5,0-9.3-3.4-10.5-8.3c-0.7-2.8-0.2-5.7,1.3-8.2c1.5-2.4,3.9-4.2,6.7-4.8l93-21.9
			c0.8-0.2,1.7-0.3,2.5-0.3c5,0,9.3,3.4,10.5,8.3c0.7,2.8,0.2,5.7-1.3,8.2c-1.5,2.4-3.9,4.2-6.7,4.8l-93,21.9
			c-0.3,0.1-0.6,0.1-1,0.2C118.1,103.5,117.6,103.5,117.1,103.5z"/>
	</g>
	<g>
		<path class="st1" d="M125.5,70.7c-5,0-9.3-3.4-10.5-8.3c-0.7-2.8-0.2-5.7,1.3-8.2c1.5-2.4,3.9-4.2,6.7-4.8l45.4-10.8
			c0.8-0.2,1.7-0.3,2.5-0.3c5,0,9.3,3.4,10.5,8.3c1.4,5.8-2.3,11.6-8,13L128,70.4c-0.3,0.1-0.7,0.1-1,0.2
			C126.5,70.7,126,70.7,125.5,70.7z"/>
	</g>
	<g>
		<path class="st1" d="M117.1,137.7c-5,0-9.3-3.4-10.5-8.3c-0.7-2.8-0.2-5.7,1.3-8.2c1.5-2.4,3.9-4.2,6.7-4.8l93-21.9
			c0.8-0.2,1.7-0.3,2.5-0.3c5,0,9.3,3.4,10.5,8.3c0.7,2.8,0.2,5.7-1.3,8.1c-1.5,2.5-3.9,4.2-6.7,4.8l-93.4,22
			c-0.2,0-0.5,0.1-0.7,0.1C118.1,137.7,117.6,137.7,117.1,137.7z"/>
	</g>
	<g>
		<g>
			<path class="st1" d="M193,186.4h-21.5l0.7-4.6c2.4-15.3,12.5-22.2,13-22.5c1.8-1.2,3.8-1.8,6-1.8c3.6,0,6.9,1.8,8.9,4.7
				c1.6,2.3,2.2,5.2,1.7,8c-0.5,2.8-2.1,5.2-4.4,6.8c-0.4,0.4-2.5,2.4-3.5,6.4L193,186.4z"/>
		</g>
	</g>
	<g>
		<g>
			<path class="st1" d="M142.5,186.6l-1.2-1.2c-6.4-6.5-15.7-13.7-24.4-19c-3.7-2.3-5.7-6.5-5.1-10.8c0.7-4.3,3.9-7.8,8.1-8.8
				l82.6-19.5c5.9-1.4,11.6,2.3,12.9,8c0.7,2.8,0.2,5.6-1.3,8.1c-1.5,2.5-3.9,4.2-6.7,4.8l-59.7,14.1c0.8,0.7,1.6,1.4,2.4,2.1
				c5.3,4.6,11,11.2,14.5,15.7l4.8,6.3L142.5,186.6z"/>
		</g>
	</g>
	<path class="st1" d="M138,195.9c0,0,0,8.9,0,12.4c0,7.7,10.7,10.8,10.7,13.8l0,18.4c0,2.8,1.9,5.4,4.3,5.4h8.1
		c-0.1,0,1.9-0.1,1.9,1.1v2.2c0,1.5,0.9,1.7,1.7,1.7h8.3c1.1,0,2.5,0,2.5-1.7v-2.3c0-1.1,1.3-0.9,1.2-0.9h7.1c2.4,0,4.1-2.7,4.1-5.4
		l0-18.2c0-3,10.1-6.2,10.1-13.9c0-3.5,0-12.4,0-12.4H138z"/>
</g>
<g>
	<g>
		<path d="M106.4,116.6c-6.3,0-11.7-4.3-13.2-10.4c-0.8-3.5-0.2-7.2,1.7-10.2c1.9-3.1,4.9-5.2,8.4-6.1l93-21.9
			c1-0.2,2.1-0.4,3.1-0.4c6.3,0,11.7,4.3,13.2,10.5c0.8,3.5,0.2,7.2-1.7,10.2c-1.9,3.1-4.9,5.2-8.4,6.1l-93,21.9
			c-0.3,0.1-0.8,0.2-1.3,0.2C107.6,116.6,107,116.6,106.4,116.6z M199.4,73.1c-0.6,0-1.2,0.1-1.9,0.2l-93,21.9
			c-2.1,0.5-3.9,1.8-5,3.6c-1.1,1.8-1.5,4-1,6.1c0.9,4,4.7,6.7,8.9,6.1c0.2,0,0.5-0.1,0.7-0.1L201.3,89c2.1-0.5,3.9-1.8,5-3.6
			c1.1-1.8,1.5-4,1-6.1C206.4,75.6,203.2,73.1,199.4,73.1z"/>
	</g>
	<g>
		<path d="M114.8,83.8c-6.3,0-11.7-4.3-13.2-10.4c-0.8-3.5-0.2-7.2,1.7-10.2c1.9-3.1,4.9-5.2,8.4-6.1L157,46.3
			c1-0.2,2.1-0.4,3.1-0.4c6.3,0,11.7,4.3,13.2,10.4c1.7,7.3-2.8,14.6-10.1,16.3l-45.4,10.8c-0.4,0.1-0.9,0.2-1.3,0.2
			C116,83.7,115.4,83.8,114.8,83.8z M160.2,51.4c-0.6,0-1.3,0.1-1.9,0.2l-45.4,10.8c-2.1,0.5-3.9,1.8-5,3.6c-1.1,1.8-1.5,4-1,6.1
			c0.9,4,4.9,6.7,8.9,6.1c0.3,0,0.5-0.1,0.8-0.1L162,67.3c4.3-1,7-5.4,6-9.7C167.1,54,163.9,51.4,160.2,51.4z"/>
	</g>
	<g>
		<path d="M106.4,150.8c-6.3,0-11.7-4.3-13.2-10.4c-0.8-3.5-0.2-7.2,1.7-10.2c1.9-3.1,4.9-5.2,8.4-6.1l93-21.9
			c1-0.2,2.1-0.4,3.1-0.4c6.3,0,11.7,4.3,13.2,10.4c0.8,3.5,0.2,7.1-1.7,10.2c-1.9,3.1-4.9,5.2-8.4,6.1l-93.3,22
			c-0.4,0.1-0.7,0.1-1,0.2C107.6,150.7,107,150.8,106.4,150.8z M199.4,107.2c-0.6,0-1.3,0.1-1.9,0.2l-93,21.9
			c-2.1,0.5-3.9,1.8-5,3.6c-1.1,1.8-1.5,4-1,6.1c0.9,3.7,4.1,6.2,7.8,6.2c0.4,0,0.7,0,1.1-0.1c0.2,0,0.4-0.1,0.6-0.1l93.3-22
			c2.1-0.5,3.9-1.8,5-3.6c1.1-1.8,1.5-4,1-6.1C206.4,109.8,203.2,107.2,199.4,107.2z"/>
	</g>
	<g>
		<g>
			<path d="M184.3,199.4h-26.9l1.3-7.8c2.6-16.5,13.7-24,14.2-24.3c2.2-1.5,4.8-2.3,7.5-2.3c4.5,0,8.7,2.2,11.2,5.9
				c2,2.9,2.7,6.5,2.1,10.1c-0.7,3.4-2.6,6.4-5.4,8.4c-0.4,0.4-1.8,1.9-2.6,5L184.3,199.4z M163.9,193.9h16.2l0.2-0.9
				c1.2-4.7,3.7-7.2,4.4-7.8l0.2-0.2c1.7-1.2,2.9-3,3.3-5c0.4-2.1,0-4.2-1.2-5.9c-1.5-2.2-4-3.5-6.6-3.5c-1.6,0-3.1,0.5-4.4,1.4
				c-0.1,0.1-9.5,6.5-11.8,20.6L163.9,193.9z"/>
		</g>
	</g>
	<g>
		<g>
			<path d="M130.6,199.6l-2-2.1c-6.2-6.3-15.4-13.4-23.9-18.6c-4.7-2.8-7.2-8.2-6.4-13.6c0.9-5.5,4.9-9.8,10.2-11l82.6-19.5
				c3.5-0.8,7.1-0.3,10.2,1.6c3.1,1.9,5.2,4.9,6,8.4c0.8,3.5,0.3,7.1-1.6,10.1c-1.9,3.1-4.9,5.2-8.4,6L142.8,174
				c4.9,4.6,10.1,10.5,13.2,14.6l8.1,10.7L130.6,199.6z M194.2,140.1c-0.6,0-1.3,0.1-1.9,0.2l-82.6,19.5c-3.2,0.7-5.6,3.3-6.1,6.5
				c-0.5,3.2,1,6.4,3.8,8c8.9,5.4,18.5,12.8,25,19.4l0.4,0.4l20.3-0.2l-1.5-2c-3.3-4.4-9-10.8-14.1-15.3c-0.8-0.7-1.5-1.3-2.4-2
				l-4.3-3.5l65.1-15.3c2.1-0.5,3.8-1.7,5-3.6c1.1-1.8,1.5-3.9,1-6c-0.5-2.1-1.8-3.9-3.6-5C197.1,140.5,195.7,140.1,194.2,140.1z"/>
		</g>
	</g>
	<path d="M162.2,263.9h-8.3c-2.7,0-4.5-1.8-4.5-4.5v-0.5h-7.2c-3.8,0-7.1-3.8-7.1-8.2l0-18c-0.4-0.5-1.5-1.3-2.4-1.9
		c-3.3-2.4-8.3-6.1-8.3-12.2v-15.1h65.4v15.1c0,6.1-4.7,9.8-7.9,12.3c-0.8,0.6-1.9,1.5-2.3,2l0,17.9c0,4.6-3,8.2-6.8,8.2h-5.5v0.5
		C167.4,261.1,166.8,263.9,162.2,263.9z M150.5,258.9C150.5,258.9,150.5,258.9,150.5,258.9L150.5,258.9z M165.9,256.3l-0.1,2.6
		c0,0,0.1,0,0.1,0V256.3z M155,258.4l7,0v-1.3c0-1.3,0.6-2.5,1.7-3.1c0.8-0.5,1.5-0.6,2.1-0.6l7.3,0c0.5,0,1.3-1.2,1.3-2.7l0-18.2
		c0-2.5,2-4.1,4.4-5.9c2.7-2.1,5.8-4.5,5.8-7.9V209H130v9.6c0,3.4,3.2,5.7,6,7.8c2.5,1.8,4.6,3.4,4.6,5.9l0,18.4
		c0,1.5,1,2.7,1.6,2.7l8.2,0c2.7,0,4.5,1.6,4.5,3.8V258.4z M135.1,232.4L135.1,232.4L135.1,232.4z"/>
</g>
</svg>
