<?xml version="1.0" encoding="utf-8"?>
<!-- Generator: Adobe Illustrator 21.1.0, SVG Export Plug-In . SVG Version: 6.00 Build 0)  -->
<svg version="1.1" id="Layer_1" xmlns="http://www.w3.org/2000/svg" xmlns:xlink="http://www.w3.org/1999/xlink" x="0px" y="0px"
	 viewBox="0 0 50.8 50.3" style="enable-background:new 0 0 50.8 50.3;" xml:space="preserve">
<style type="text/css">
	.st0{fill:#FFFFFF;}
</style>
<path class="st0" d="M48.9,15.1c-1.2-3-2.9-5.7-5.1-7.9C41.6,5,39,3.2,36,1.9C32.9,0.6,29.6,0,25.9,0c-3.6,0-7,0.7-10.2,2
	c-3.2,1.3-5.9,3.2-8.2,5.5c-2.3,2.3-4.2,5-5.5,8.1c-1.3,3.1-2,6.4-2,9.8c0,3.5,0.6,6.7,1.9,9.8c1.2,3,2.9,5.6,5.1,7.9
	c2.2,2.2,4.8,4,7.9,5.3c3.1,1.3,6.4,1.9,10,1.9c3.6,0,7-0.7,10.2-2c3.2-1.3,5.9-3.2,8.2-5.5c2.3-2.3,4.2-5,5.5-8.1
	c1.3-3.1,2-6.3,2-9.8C50.8,21.4,50.2,18.2,48.9,15.1z M36.7,25.9L25.2,42.4L8.9,11.9h33l-12.1,14H36.7z"/>
</svg>
