<?xml version="1.0" encoding="utf-8"?>
<!-- Generator: Adobe Illustrator 22.0.1, SVG Export Plug-In . SVG Version: 6.00 Build 0)  -->
<svg version="1.1" id="Layer_1" xmlns="http://www.w3.org/2000/svg" xmlns:xlink="http://www.w3.org/1999/xlink" x="0px" y="0px"
	 viewBox="0 0 56.7 50.3" style="enable-background:new 0 0 56.7 50.3;" xml:space="preserve">
<style type="text/css">
	.st0{fill:#E2E2E4;}
</style>
<g>
	<path class="st0" d="M54.6,4.1H2.1c-1.1,0-2-0.9-2-2s0.9-2,2-2h52.6c1.1,0,2,0.9,2,2S55.8,4.1,54.6,4.1z"/>
	<path class="st0" d="M54.6,27.1H2.1c-1.1,0-2-0.9-2-2s0.9-2,2-2h52.6c1.1,0,2,0.9,2,2S55.8,27.1,54.6,27.1z"/>
	<path class="st0" d="M54.6,50.2H2.1c-1.1,0-2-0.9-2-2s0.9-2,2-2h52.6c1.1,0,2,0.9,2,2S55.8,50.2,54.6,50.2z"/>
</g>
</svg>
