<?xml version="1.0" encoding="utf-8"?>
<!-- Generator: Adobe Illustrator 21.1.0, SVG Export Plug-In . SVG Version: 6.00 Build 0)  -->
<svg version="1.1" id="Layer_1" xmlns="http://www.w3.org/2000/svg" xmlns:xlink="http://www.w3.org/1999/xlink" x="0px" y="0px"
	 viewBox="0 0 781.5 655" style="enable-background:new 0 0 781.5 655;" xml:space="preserve">
<style type="text/css">
	.st0{fill:#FFFFFF;}
	.st1{fill:none;stroke:#BFBEBE;stroke-miterlimit:10;}
	.st2{fill:#DDDDDC;}
	.st3{fill:#BFBEBE;}
	.st4{font-family:'FuturaBT-Light';}
	.st5{font-size:5.7027px;}
	.st6{font-size:5.7028px;}
	.st7{fill:none;stroke:#EEEBE4;stroke-width:2;stroke-miterlimit:10;}
	.st8{fill:#EC2024;}
	.st9{fill:#373C43;}
	.st10{font-family:'Futura-Medium';}
	.st11{font-size:5.276px;}
</style>
<g>
	<g>
		<g>
			<rect class="st0" width="781.5" height="655"/>
			<g>
				<path class="st1" d="M83.8,463.5c0,0,150.7-28.7,245.2-136.2c85.7-97.4,57.8-122.7,52.9-128c-20.8-22.6-29.2-31.8-44.7-50.1"/>
				<path class="st1" d="M203,635.5c0,0-61.4-81.5-80.9-110.9c-17.7-26.7-24.9-25.7-24.9-25.7s-9.1-0.3-13.4,10.3"/>
				<path class="st2" d="M687.7,266.8c-0.5,4.4-4.2,7.7-8.6,7.7h-55.4c-4,0.1-7-3.6-6.1-7.5l4.9-20.5l67.5,0.2L687.7,266.8z"/>
				<path class="st1" d="M690,209.9c-148.1,5.7-251.9,41.9-249.6-60.7"/>
				<polyline class="st1" points="388.8,149.2 399.2,161.1 398.5,149.6 				"/>
				
					<ellipse transform="matrix(0.7071 -0.7071 0.7071 0.7071 -23.0805 357.1115)" class="st3" cx="419.5" cy="206.4" rx="14.9" ry="20.3"/>
				
					<ellipse transform="matrix(0.9576 -0.2882 0.2882 0.9576 -132.2604 53.4071)" class="st3" cx="115.2" cy="475.8" rx="18.2" ry="8.5"/>
				<path class="st3" d="M113.3,494.1l15-5.5l1.6,10.2c0,0-5.6-1.1-9,3.7L113.3,494.1z"/>
				<path class="st3" d="M141.3,467.4l-3-5.7c0,0,90.6-25.1,158.7-86c0,0,4.6-4.4,6.6-2c1.6,2-3.2,6.4-3.2,6.4
					S246.2,431.8,141.3,467.4z"/>
				<path class="st3" d="M324.1,360c0,0-5.8,5.7-7.9,4.9c-4.4-1.9,3.1-8.1,3.1-8.1c5.5-5,23.2-16.8,65.2-84.6c0,0,3.7-5.7,5.7-3.3
					c1.6,2-2.3,7.7-2.3,7.7S350.4,338.4,324.1,360z"/>
				<path class="st3" d="M415.6,231.9l-10.6-5.7c0,0-1.4,13.9-8.5,22.2c-7.8,9.1,0.8,11,3.9,2.4C402.8,244.4,408,235.3,415.6,231.9z
					"/>
				<path class="st3" d="M690,233c-197.8,23.4-251.9-4.1-251.9-4.1l7.1-9c47.6,18.8,154.2,15,244.7,4.6L690,233z"/>
				<path class="st3" d="M375.2,149.2c4,8.4,25.2,33.2,25.2,33.2l-7.9,6.4c0,0-27.2-34.5-35.8-38.8"/>
				<path class="st3" d="M412.3,149.2l1.7,29.4l10.4,2.7c0,0-3.2-18.7-1.3-31.3"/>
				<path class="st2" d="M316,383.7l11.8,13.1c2.8,3.1,2.2,7.9-1.2,10.2l-68.2,47.6c-3,2.1-6.9,2.4-10.1,0.7c0,0-14-7.1-19.5-9.9
					c-0.9-0.5-0.9-1.7,0-2.2c25.3-13.1,54.9-31.9,85.5-59.6C314.7,383.1,315.5,383.2,316,383.7z"/>
				<path class="st2" d="M546.6,256.5l-9.5,16.4c-2.5,4.4-7.3,7.1-12.4,6.9l-58.2-1.8c-19.3-0.6-37.7,7.8-49.8,22.8L353.1,379
					c-2.5,3.1-7.1,3.3-9.8,0.4c0,0-7.9-8.2-10.9-11.2c-0.6-0.6-0.6-1.6,0-2.2c23.4-24,47-53.6,69.1-90.3c0,0,0.1-0.1,0.1-0.1
					c0.9-1.8,19.1-38.3,71.3-25.9c20.2,4.8,47,5.4,72.3,4.4C546.4,254,547.2,255.4,546.6,256.5z"/>
				<path class="st2" d="M384.4,363.9l35.4-47.4c1.1-1.5,2.5-2.7,4-3.6l40.3-24c1.3-0.8,2.7-1.1,4.2-1l53,4.1c1.7,0.1,2.6,2,1.6,3.4
					c-9.3,13.7-51.2,67.7-136.9,71.7C384.4,367.2,383.4,365.3,384.4,363.9z"/>
				<path class="st2" d="M526.3,319.9l28.8,20.8c2,1.5,2.4,4.3,0.8,6.2c-13.3,15.9-73.1,79.6-178.4,78l-9.4,0
					c-9.3,0-16.9-7.5-16.9-16.9v0c0-17,13.8-30.7,30.7-30.7h0c0,0,68.1,9.8,136-56.8C520.2,318.3,523.7,318,526.3,319.9z"/>
				<path class="st2" d="M610.2,251.2c-7.7,37.6-30.7,66.7-39.8,77.1c-2.1,2.4-5.6,2.7-8.1,0.9l-28.8-20.5c-1.9-1.3-2.2-4-0.7-5.8
					c10.3-12.1,22.6-39.4,26.2-47.4c0.6-1.4,1.9-2.3,3.5-2.4c18.1-1.3,34.4-3.1,45.4-4.5C609.3,248.4,610.5,249.7,610.2,251.2z"/>
				<path class="st2" d="M676.8,344.7H617c-17.9-0.3-39.3-0.1-60.2,17.7C539,379,512,398.4,512,398.4c-2,1.6-2.5,4.5-1.2,6.8
					l17.7,29.3c2.4,4,7.7,5,11.4,2.3l58.1-42c1.3-1,3-1.5,4.6-1.5h67.7L676.8,344.7z"/>
				<path class="st2" d="M277.5,456.6l37.4-26.3c2.3-1.6,5.3-2.1,8-1.3c6.9,2.2,22,6,43.8,6.9c2.7,0.1,4.8,2.3,4.8,5v38.6
					c0,3-2.4,5.3-5.3,5.3c-13.4-0.1-50.2-1.8-87.3-16.5C273.9,466.4,273.1,459.7,277.5,456.6z"/>
				<path class="st2" d="M384,440.8V481c0,2.1,1.8,3.8,3.9,3.7c16.3-0.8,80.3-5.7,127.4-34c3.2-1.9,4.2-6,2.3-9.2l-17.3-29.2
					c-1.6-2.7-5.1-3.7-7.9-2.1c-12.5,7.3-48.7,25.2-104.6,26.7C385.7,437,384,438.7,384,440.8z"/>
				<path class="st1" d="M148.3,486.3c-3.5,10.7,3.7,20.6,3.7,20.6l94.8,128.5"/>
				<path class="st2" d="M147.5,486.4l41.2,12.4l18.4,10.4l22.9,9.7l29.7,4.8l40.6,21.4l52.6,4.4l16.1,5.8l17.1-5.8L373,502
					c-0.8-3-3.6-5.1-6.7-5.2c-81.5-2.5-136.7-36.2-149.1-44.6c-1.7-1.1-3.9-1.3-5.7-0.4c-18.3,8.4-33.2,13.7-43,17.7
					C155.1,474.7,149.5,480.4,147.5,486.4z"/>
				<line class="st1" x1="207.1" y1="509.2" x2="246.7" y2="468.6"/>
				<line class="st1" x1="274.6" y1="531.6" x2="288.2" y2="484.3"/>
				<line class="st1" x1="325.8" y1="547.2" x2="335.1" y2="494.3"/>
				<path class="st2" d="M394.1,541.7l-8.9-42.1c-0.6-2.7,1.3-5.3,4-5.4c7.4-0.3,21.8-1.2,34.8-3.8c2.2-0.4,4.3,1,4.9,3.2l7.2,28.8
					c0.5,2.1-0.4,4.2-2.3,5.2l-33.7,17.2C397.6,546,394.7,544.5,394.1,541.7z"/>
				<path class="st2" d="M451.6,515l-5.7-23c-0.7-2.7,1-5.4,3.8-5.9c16.4-3.3,62.3-13.4,113.7-52.1c2.4-1.8,5.9-1.1,7.4,1.6l9,17
					c1.7,3.2,0.4,7.3-3,8.8l-119.8,56.2C454.7,518.6,452.2,517.4,451.6,515z"/>
				<path class="st2" d="M595.9,447l-11-21.2c-1.4-2.6-0.8-5.8,1.3-7.8l7.3-6.8c4.5-4.2,7.5-5.3,13.6-5.3h13.6
					c2.9,0,5.6,1.7,6.9,4.3l9.4,18.4c1.1,2.1,0.2,4.8-1.9,5.7l-32.5,15.1C600.1,450.5,597.2,449.5,595.9,447z"/>
				<path class="st2" d="M668.9,405.4l-21.8,0.2c-1.7,0-2.8,1.9-2.1,3.6l6.8,14.8c0.7,1.5,2.3,2.1,3.7,1.4l11.7-5.6L668.9,405.4z"/>
				<line class="st1" x1="251" y1="635.5" x2="690.3" y2="424"/>
				<path class="st3" d="M219.7,635.5L127,510.9c0,0-2.5-3.4,0-5.5c2.4-1.9,5.5,3.3,5.5,3.3l95,126.8"/>
				<path class="st2" d="M671.3,324.3l2.3-32.9c0.3-4.2-3-7.7-7.2-7.7h-48.7c-3.3,0-6.3,1.9-7.6,4.9c-4.2,9.4-14.4,30.5-29.2,47.9
					c-0.7,0.9,0.1,2.2,1.2,1.8c5.5-1.9,15.7-4.9,25.9-4.9h53.3C666.6,333.6,670.9,329.5,671.3,324.3z"/>
				<g>
					<text transform="matrix(0.9533 0.3021 -0.3021 0.9533 273.2628 475.9176)" class="st4 st5">MAZATLÁN</text>
				</g>
				<g>
					<text transform="matrix(0.8216 -0.5701 0.5701 0.8216 282.3788 447.7225)" class="st4 st5">CULIACÁN</text>
				</g>
				<g>
					<text transform="matrix(0.6122 -0.7907 0.7907 0.6122 373.6246 369.4462)" class="st4 st6">CTO. EL FUERTE</text>
				</g>
				<g>
					<text transform="matrix(0.855 -0.5186 0.5186 0.855 423.2841 306.3651)" class="st4 st5">CTO. EL FUERTE</text>
				</g>
				<g>
					<text transform="matrix(0.8702 -0.4926 0.4926 0.8702 453.2653 361.3685)" class="st4 st5">CTO. EL FUERTE</text>
				</g>
				<g>
					<text transform="matrix(0.9974 -7.261000e-02 7.261000e-02 0.9974 386.2795 432.878)" class="st4 st5">TRES RÍOS</text>
				</g>
				<g>
					<text transform="matrix(0.7677 -0.6408 0.6408 0.7677 527.4492 383.9428)" class="st4 st6">TRES RÍOS</text>
				</g>
				<g>
					<text transform="matrix(0.8008 0.599 -0.599 0.8008 524.3499 312.3132)" class="st4 st5">3er Paso TRES RÍOS</text>
				</g>
				<g>
					<text transform="matrix(-1.554000e-02 0.9999 -0.9999 -1.554000e-02 375.5855 437.4237)" class="st4 st5">1er Paso TRES RÍOS</text>
				</g>
				<g>
					<text transform="matrix(0.256 0.9667 -0.9667 0.256 376.1404 498.1367)" class="st4 st6">1ra CDA. MAZATLÁN</text>
				</g>
				<g>
					<text transform="matrix(0.256 0.9667 -0.9667 0.256 438.8165 493.3999)"><tspan x="0" y="0" class="st4 st6">2da CDA.</tspan><tspan x="0" y="6.8" class="st4 st6">MAZATLÁN</tspan></text>
				</g>
				<g>
					<text transform="matrix(0.4582 0.8888 -0.8888 0.4582 578.024 427.4299)"><tspan x="0" y="0" class="st4 st5">3ra CDA.</tspan><tspan x="0" y="6.8" class="st4 st5">MAZATLÁN</tspan></text>
				</g>
				<g>
					<text transform="matrix(0.4454 0.8953 -0.8953 0.4454 636.9512 407.8985)"><tspan x="0" y="0" class="st4 st5">4ta CDA.</tspan><tspan x="0" y="6.8" class="st4 st5">MAZATLÁN</tspan></text>
				</g>
				<g>
					<text transform="matrix(0.5099 0.8602 -0.8602 0.5099 501.241 404.8253)" class="st4 st5">2do Paso TRES RÍOS</text>
				</g>
				<g>
					<text transform="matrix(0.4875 -0.8731 0.8731 0.4875 539.1206 285.544)" class="st4 st5">CDA. EL FUERTE</text>
				</g>
				<g>
					<text transform="matrix(0.4875 -0.8731 0.8731 0.4875 589.5088 318.7006)" class="st4 st5">CTO. COSALÁ</text>
				</g>
				<g>
					<text transform="matrix(4.998000e-02 -0.9988 0.9988 4.998000e-02 681.7101 328.9197)" class="st4 st5">CTO. COSALÁ</text>
				</g>
				<g>
					<text transform="matrix(0.9103 -0.4138 0.4138 0.9103 490.9459 471.1179)" class="st4 st5">MAZATLÁN</text>
				</g>
				<g>
					<text transform="matrix(0.9999 -1.078000e-02 1.078000e-02 0.9999 620.6555 401.8905)" class="st4 st5">MAZATLÁN</text>
				</g>
			</g>
			<rect x="83.8" y="149.2" class="st7" width="606.5" height="486.2"/>
			<circle class="st8" cx="307" cy="515.4" r="11.3"/>
		</g>
	</g>
	<g>
		<g>
			<path class="st9" d="M614.1,109.6h-5.8l-1.5,3.3h-2.2l6.7-14.5l6.5,14.5h-2.3L614.1,109.6z M613.3,107.7l-2-4.6l-2.1,4.6H613.3z"
				/>
			<path class="st9" d="M621.6,99.3V111h4v1.9h-6.1V99.3H621.6z"/>
			<path class="st9" d="M629.6,99.3v13.6h-2.1V99.3H629.6z"/>
			<path class="st9" d="M640.9,109.6h-5.8l-1.5,3.3h-2.2l6.7-14.5l6.5,14.5h-2.3L640.9,109.6z M640.1,107.7l-2-4.6l-2.1,4.6H640.1z"
				/>
			<path class="st9" d="M650.9,107.1l4.2,5.8h-2.5l-3.9-5.6h-0.4v5.6h-2.1V99.3h2.4c1.8,0,3.1,0.3,3.9,1c0.9,0.8,1.3,1.7,1.3,3
				c0,1-0.3,1.8-0.8,2.5C652.5,106.5,651.8,106.9,650.9,107.1z M648.3,105.6h0.7c1.9,0,2.9-0.7,2.9-2.2c0-1.4-0.9-2.1-2.8-2.1h-0.7
				V105.6z"/>
			<g>
				<path class="st9" d="M598.3,108.1l-4.5-9.3c0,0-0.1-0.2-0.1-0.4c0.1-0.1,0.3-0.1,0.3-0.1h1.8l3.8,7.6 M600.7,107.8l4.6-9.5h2.3
					l-6.9,14.7l-1.2-2.6"/>
			</g>
			<g>
				<path class="st9" d="M665.5,103.2l4.5,9.3c0,0,0.1,0.2,0.1,0.4c-0.1,0.1-0.3,0.1-0.3,0.1H668l-3.7-7.4 M663.1,103.5l-4.6,9.5
					h-2.3l6.9-14.7l1.2,2.6"/>
			</g>
		</g>
		<text transform="matrix(1 0 0 1 614.6175 120.6382)" class="st9 st10 st11">HIGH LIVING</text>
		<polygon class="st9" points="589.5,92.1 622.7,69.1 627.8,74.3 641.2,65.8 670.9,92.8 636.2,66.6 		"/>
	</g>
	<circle class="st8" cx="701.5" cy="93.4" r="7"/>
</g>
</svg>
